<?xml version="1.0" encoding="UTF-8"?>
<svg width="56px" height="56px" viewBox="0 0 56 56" version="1.1" xmlns="http://www.w3.org/2000/svg" xmlns:xlink="http://www.w3.org/1999/xlink">
    <!-- Generator: Sketch 41 (35326) - http://www.bohemiancoding.com/sketch -->
    <title>Artboard</title>
    <desc>Created with Sketch.</desc>
    <defs>
        <linearGradient x1="50%" y1="100%" x2="50%" y2="0%" id="linearGradient-1">
            <stop stop-color="#B7FF97" offset="0%"></stop>
            <stop stop-color="#63DB8F" offset="100%"></stop>
        </linearGradient>
    </defs>
    <g id="Page-1" stroke="none" stroke-width="1" fill="none" fill-rule="evenodd">
        <g id="Artboard" fill="url(#linearGradient-1)">
            <g id="second-lotus" transform="translate(4.000000, 11.000000)">
                <g id="Group">
                    <path d="M43.6827661,8.56387879 C42.5301153,8.56387879 41.2145898,8.70606061 39.7612475,9.01412121 C39.5106712,7.78187879 38.6211254,3.89557576 36.6791593,3.11357576 C36.3784678,3.01878788 36.0652475,2.94769697 35.7394983,2.94769697 C34.3613288,2.94769697 32.0184407,3.97851515 29.7507254,5.54251515 C29.713139,5.48327273 29.6755525,5.41218182 29.6254373,5.35293939 C29.3122169,4.879 26.555878,0.743878788 24.1628746,0.743878788 L24.1628746,0.743878788 C22.0329763,0.743878788 19.5522712,4.29842424 18.8005424,5.41218182 C16.3323661,3.67045455 13.989478,2.90030303 12.7992407,2.90030303 C12.4484339,2.90030303 12.1226847,2.95954545 11.8470508,3.06618182 C9.9552,3.80078788 9.06565424,7.69893939 8.80254915,9.13260606 C7.14874576,8.75345455 5.60770169,8.56387879 4.3172339,8.56387879 L4.3172339,8.56387879 C2.81377627,8.56387879 1.91170169,8.81269697 1.31031864,9.36957576 C-0.356013559,10.9454242 0.771579661,15.7203636 0.896867797,16.2535455 C1.57342373,18.9431515 3.20216949,22.9242424 7.21138983,26.7394545 C13.5885559,32.7584848 20.2664136,33.2087273 22.1582644,33.2087273 C22.5341288,33.2087273 22.9099932,33.1850303 23.1981559,33.1731818 C23.461261,33.2324242 23.7243661,33.2442727 23.9498847,33.2442727 L24.1503458,33.2442727 L24.4510373,33.2442727 C24.6765559,33.2442727 24.9020746,33.2324242 25.1651797,33.1850303 C25.3656407,33.2087273 25.6036881,33.2087273 25.8542644,33.2087273 C27.7335864,33.2087273 34.4239729,32.7584848 40.7760814,26.7394545 C44.7978305,22.9242424 46.4516339,18.9431515 47.1031322,16.2535455 C47.253478,15.7203636 48.3936,10.9454242 46.6896814,9.36957576 C46.1008271,8.81269697 45.1736949,8.56387879 43.6827661,8.56387879 Z M24.1754034,2.56854545 C24.7141424,2.56854545 26.5809356,3.99036364 28.2472678,6.6799697 C26.9693288,7.72263636 25.5661017,9.09706061 24.2631051,10.8624848 C23.0478102,9.13260606 21.6946983,7.69893939 20.3165288,6.57333333 C21.9327458,4.02590909 23.6742508,2.56854545 24.1754034,2.56854545 Z M8.57703051,25.4598182 C1.6360678,18.9076061 1.94928814,11.3245758 2.66343051,10.6492121 C2.82630508,10.4714848 3.41515932,10.3648485 4.3172339,10.3648485 C5.36965424,10.3648485 6.87311186,10.5307273 8.57703051,10.9454242 C8.31392542,13.6587273 8.52691525,17.3199091 10.2308339,21.2180606 C12.1352136,25.6730909 15.1922441,28.5759697 17.3722576,30.2229091 C17.6729492,30.4717273 18.0112271,30.6968485 18.3119186,30.8982727 C15.4553492,30.1873636 11.8846373,28.5996667 8.57703051,25.4598182 Z M20.3165288,26.5735758 C20.4167593,27.1304545 20.7174508,29.0025152 21.4065356,30.6020606 C18.5624949,29.1802424 14.3277559,25.9337576 11.9973966,20.542697 C8.52691525,12.5686667 11.6591186,5.09227273 12.5611932,4.7249697 C12.6363661,4.71312121 12.711539,4.71312121 12.8117695,4.71312121 C14.1523525,4.71312121 19.4520407,6.79845455 23.1480407,12.5568182 C22.6970034,13.2677273 22.2960814,14.0497273 21.9327458,14.9028182 C19.8654915,19.5592727 19.9406644,23.8128788 20.3165288,26.5735758 Z M24.4510373,31.467 C24.338278,31.467 24.2255186,31.4551515 24.1754034,31.4314545 C23.1355119,31.0049091 20.1661831,23.5522121 23.6993085,15.5900303 C27.0194441,8.03069697 34.2235119,4.76051515 35.7394983,4.76051515 C35.8272,4.76051515 35.8898441,4.76051515 35.9399593,4.77236364 C36.8545627,5.15151515 40.1872271,12.0591818 36.4160542,20.6137879 C32.8829288,28.5996667 26.1925424,31.467 24.4510373,31.467 Z M39.4229695,25.4598182 C36.5162847,28.2086667 33.409139,29.7726667 30.7279729,30.6020606 C33.4341966,28.6707576 36.2657085,25.6375455 38.1700881,21.3128485 C40.0118237,17.1540303 40.2248136,13.504697 40.0118237,10.8269394 C41.4651661,10.4951818 42.7556339,10.3648485 43.6827661,10.3648485 C44.5723119,10.3648485 45.1736949,10.4714848 45.3365695,10.6373636 C46.0507119,11.3245758 46.3514034,18.9076061 39.4229695,25.4598182 Z" id="Shape"></path>
                </g>
            </g>
        </g>
    </g>
</svg>